# xmcd
#
# Track frame offsets:
#       182
#       23005
#       34990
#       47900
#       66092
#       82170
#       97430
#       109527
#       127577
#       148592
#       164377
#       187700
#       208377
#       218777
#       238967
#       252315
#
# Disc length: 3643 seconds
#
# Revision: 0
# Processed by: cddbd v1.4PL0 Copyright (c) Steve Scherf et al.
# Submitted via: WhereIsIt 3.11
#
DISCID=eb0e3910
DTITLE=Joe Cocker - The Best Of Joe Cocker
DYEAR=1900
DGENRE=
TTITLE0=With A Little Help From My Friends
TTITLE1=She Came In Through The Bathroom Window
TTITLE2=Delta Lady
TTITLE3=Feeling Alright
TTITLE4=Something
TTITLE5=Dear Landlord
TTITLE6=Marjorine
TTITLE7=Do I Still Figure In Your Life?
TTITLE8=Don't Let Me Be Misunderstood
TTITLE9=Bye Bye BlackBird
TTITLE10=Just Like A Woman
TTITLE11=I Shall Be Released
TTITLE12=Lawdy Miss Clawdy
TTITLE13=Bird On A Wire
TTITLE14=That's Your Business
TTITLE15=Darling Be Home Soon
EXTD=
EXTT0=
EXTT1=
EXTT2=
EXTT3=
EXTT4=
EXTT5=
EXTT6=
EXTT7=
EXTT8=
EXTT9=
EXTT10=
EXTT11=
EXTT12=
EXTT13=
EXTT14=
EXTT15=
PLAYORDER=
